<svg width="320" height="62" viewBox="0 0 320 62" fill="none" xmlns="http://www.w3.org/2000/svg">
<rect width="320" height="62" fill="#FFFEFD"/>
<path d="M20.7678 47.4295C20.709 46.7191 20.2852 46.0206 19.1199 45.9614C19.8379 45.8667 20.8267 44.2091 20.4029 42.9778C20.0498 41.9832 18.9904 42.374 18.3665 42.5634C18.2488 43.5106 18.5195 45.251 17.4719 45.4759C17.4248 44.9787 17.519 44.1499 17.3895 43.2856C17.1423 41.853 15.4002 42.516 15 42.6936C15.153 44.2801 15.1295 44.7064 15.1295 46.6126C15.1413 47.2637 15.0706 48.2938 15.1295 48.8503C15.2943 50.3302 17.0482 49.9395 17.5308 49.4304C17.5308 48.8029 17.519 47.5242 17.4837 46.8138C18.2606 46.7546 18.4018 46.9796 18.4254 48.6371C18.4371 50.2947 20.3911 49.9869 20.9679 49.4186C20.7678 48.8029 20.8267 48.0215 20.7678 47.4295Z" fill="#1A212F"/>
<path d="M21.789 46.21C21.789 49.6435 23.5547 49.9277 24.7907 49.8921C25.9325 49.8921 27.8041 49.5725 27.8158 46.21C27.8041 43.333 26.5328 42.3148 24.826 42.3148C23.025 42.3148 21.789 43.4277 21.789 46.21ZM24.826 44.2446C24.9555 44.2446 25.4498 44.0552 25.4498 46.1271C25.4498 47.4769 25.238 48.2464 24.8142 48.2464C24.4611 48.2464 24.1786 47.9268 24.2139 46.1271C24.2139 44.4933 24.6259 44.2446 24.826 44.2446Z" fill="#1A212F"/>
<path d="M30.2378 44.4933C30.2378 45.1681 30.226 45.914 30.2614 48.2109C30.2731 49.1344 30.3084 49.8921 31.3678 49.8685C32.3095 49.8685 32.5449 49.4896 32.6509 49.3712C32.6862 48.3411 32.6156 46.0916 32.592 44.5288C32.851 44.5288 33.0982 44.5288 33.3218 44.5169C34.0752 44.4933 34.3341 44.0433 34.3224 43.4158C34.3106 42.7055 33.7338 42.3266 32.9334 42.3266H30.6969C28.9195 42.3384 28.8017 42.3384 28.6605 42.3266C28.3309 43.7237 28.531 44.4696 29.8847 44.4933H30.2378Z" fill="#1A212F"/>
<path d="M39.1709 42.374C38.347 42.2911 36.3577 42.3266 34.9804 42.3858C35.1335 43.9605 35.1452 45.9851 35.1217 47.4177C35.1452 48.7911 35.0275 49.7501 36.4636 49.8448C37.4053 49.9158 37.935 49.9158 38.7825 49.8448C39.9361 49.7501 40.4069 49.1226 39.8537 47.7492C38.9002 47.8912 38.0174 47.9268 37.4641 47.8202C37.4641 47.6544 37.4406 47.1335 37.4641 47.0033C37.9938 47.0033 38.5706 46.9796 39.0768 46.9796C40.1244 46.9796 40.0185 45.2865 39.065 45.2865C38.3823 45.251 38.0762 45.322 37.4406 45.2628V44.3275C38.1586 44.2683 38.4764 44.3038 39.0768 44.3275C40.2068 44.363 40.2068 42.6107 39.1709 42.374Z" fill="#1A212F"/>
<path d="M42.8479 39.7929C42.071 40.302 42.1181 41.0716 42.6714 41.5333C43.2952 41.9832 44.5194 41.8412 45.3434 41.4741C46.0967 41.1308 46.391 40.3494 45.5906 39.7692C44.4017 40.3967 43.613 40.0771 42.8479 39.7929ZM47.0384 43.3803C47.0384 42.6699 46.5911 42.3266 45.8849 42.3266C45.0609 42.3266 44.6371 42.5397 44.3899 43.2974C44.0957 44.2209 43.6601 45.6417 43.4129 46.6244C43.4129 46.1982 43.4836 43.6882 43.4836 43.3803C43.4836 42.5989 43.0716 42.3266 42.3771 42.3266C41.8945 42.3266 41.0352 42.6344 41.0352 42.6344C41.1058 43.1672 41.1647 43.475 41.1764 44.1736C41.2 44.9076 41.1764 46.0798 41.2471 48.4003C41.2824 49.537 41.6473 49.9158 42.5654 49.8803C44.2134 49.8211 44.3193 46.7665 44.7666 45.6535C44.7666 46.1626 44.7431 47.9268 44.7431 48.5187C44.7431 49.3238 44.8137 49.8803 45.7436 49.8803C46.544 49.8803 47.0031 49.608 47.1444 49.3594C47.0502 49.0042 47.0149 46.8493 47.0149 45.1563C47.0149 44.4104 47.0266 43.7592 47.0384 43.3803Z" fill="#1A212F"/>
<path d="M53.8578 47.4295C53.799 46.7191 53.3752 46.0206 52.2099 45.9614C52.9279 45.8667 53.9167 44.2091 53.4929 42.9778C53.1398 41.9832 52.0804 42.374 51.4565 42.5634C51.3388 43.5106 51.6095 45.251 50.5619 45.4759C50.5148 44.9787 50.609 44.1499 50.4795 43.2856C50.2323 41.853 48.4902 42.516 48.09 42.6936C48.243 44.2801 48.2195 44.7064 48.2195 46.6126C48.2313 47.2637 48.1606 48.2938 48.2195 48.8503C48.3843 50.3302 50.1382 49.9395 50.6208 49.4304C50.6208 48.8029 50.609 47.5242 50.5737 46.8138C51.3506 46.7546 51.4918 46.9796 51.5154 48.6371C51.5271 50.2947 53.4811 49.9869 54.0579 49.4186C53.8578 48.8029 53.9167 48.0215 53.8578 47.4295Z" fill="#1A212F"/>
<path d="M61 49.3712C60.8352 48.9094 60.847 48.6845 60.8117 48.0215C60.7175 46.2929 60.694 44.6235 60.1289 43.475C59.1755 41.782 56.7153 42.2437 55.5265 43.0962C55.4205 45.1444 55.0674 45.9851 54.8437 48.2701C54.6789 49.9395 56.0679 50.4012 57.3627 49.5843C57.3627 49.383 57.3627 48.6845 57.4216 48.5187C57.5746 48.5187 58.1514 48.5306 58.3751 48.5306C58.3751 48.5306 58.3162 49.2173 58.6458 49.5843C59.2343 50.2592 60.588 50.0579 61 49.3712ZM57.504 47.0388C57.5864 46.3994 57.5864 45.0734 57.6217 44.7892C57.6806 44.7419 58.0808 44.7656 58.1279 44.8248C58.2691 45.3812 58.2691 46.3994 58.3044 47.0388H57.504Z" fill="#1A212F"/>
<path d="M43.4761 17.112L48.2775 12.306C48.9306 11.6523 50.0475 12.1153 50.0475 13.0399V25.882C50.0474 21.7166 46.7522 19.1833 43.4761 17.112Z" fill="#FF7236"/>
<path d="M50.0475 25.8822C50.0475 32.3403 44.8171 37.5755 38.3651 37.5755C31.9131 37.5755 26.6826 32.3402 26.6826 25.8822C26.6826 19.4241 31.913 14.9196 38.3651 14.9196C44.8172 14.9196 50.0475 19.4241 50.0475 25.8822Z" fill="#FFAA50"/>
<path d="M33.2539 25.882C33.2539 20.2538 36.4825 16.1119 40.7821 15.1397C40.0018 14.9964 39.194 14.9195 38.365 14.9195C36.2152 14.9195 34.2077 15.429 32.4775 16.3348L28.4524 12.306C27.7993 11.6523 26.6825 12.1153 26.6825 13.0399V25.882C26.6825 25.6184 26.6825 25.6198 26.6825 25.882C26.6825 32.3401 31.9129 37.5754 38.3649 37.5754C39.194 37.5754 40.0018 37.486 40.782 37.3217C36.4825 36.2069 33.2539 31.5101 33.2539 25.882Z" fill="#FF7236"/>
<path d="M35.8094 33.1903C37.2208 33.1903 38.3649 32.2087 38.3649 30.9979C38.3649 29.787 37.2208 28.8054 35.8094 28.8054C34.398 28.8054 33.2539 29.787 33.2539 30.9979C33.2539 32.2087 34.398 33.1903 35.8094 33.1903Z" fill="#FFFDFB"/>
<path d="M40.9207 33.1904C42.3321 33.1904 43.4762 32.2088 43.4762 30.9979C43.4762 29.787 42.3321 28.8054 40.9207 28.8054C39.5094 28.8054 38.3652 29.787 38.3652 30.9979C38.3652 32.2088 39.5094 33.1904 40.9207 33.1904Z" fill="#FFFDFB"/>
<path d="M38.3652 30.9983C39.1717 30.9983 39.8255 30.3439 39.8255 29.5367C39.8255 28.7294 39.1717 28.075 38.3652 28.075C37.5586 28.075 36.9048 28.7294 36.9048 29.5367C36.9048 30.3439 37.5586 30.9983 38.3652 30.9983Z" fill="#FF913C"/>
<path d="M33.9842 26.6128C33.5806 26.6128 33.2541 26.2856 33.2541 25.882V25.1512C33.2541 24.7476 33.5807 24.4204 33.9842 24.4204C34.3877 24.4204 34.7143 24.7476 34.7143 25.1512V25.882C34.7143 26.2856 34.3877 26.6128 33.9842 26.6128Z" fill="#1A212F"/>
<path d="M42.7459 26.6128C42.3423 26.6128 42.0158 26.2856 42.0158 25.882V25.1512C42.0158 24.7476 42.3424 24.4204 42.7459 24.4204C43.1495 24.4204 43.4761 24.7476 43.4761 25.1512V25.882C43.4761 26.2856 43.1495 26.6128 42.7459 26.6128Z" fill="#1A212F"/>
<path d="M283 24H305M283 31H305M283 38H305" stroke="#1A212F" stroke-width="2" stroke-linecap="round" stroke-linejoin="round"/>
</svg>
