<svg xmlns="http://www.w3.org/2000/svg" style="display:none"><symbol id="copyrightsvg"><path d="M4.5 0C6.984 0 9 2.016 9 4.5S6.984 9 4.5 9A4.502 4.502 0 010 4.5C0 2.016 2.016 0 4.5 0zm0 .9A3.599 3.599 0 00.9 4.5c0 1.989 1.611 3.6 3.6 3.6s3.6-1.611 3.6-3.6S6.489.9 4.5.9zm0 1.35c.819 0 1.536.438 1.93 1.093l-.772.463a1.35 1.35 0 100 1.389l.772.462A2.25 2.25 0 114.5 2.25z" fill="#8F8F8F"/></symbol><symbol id="fb"><circle cx="12" cy="12" r="12" fill="#FFFDFB"/><path d="M24 12c0-6.626-5.374-12-12-12S0 5.374 0 12s5.374 12 12 12l.21-.003v-9.341H9.634V11.65h2.578v-2.21c0-2.565 1.565-3.96 3.853-3.96 1.095 0 2.037.081 2.311.117v2.68h-1.577c-1.245 0-1.486.592-1.486 1.46v1.913h2.976l-.388 3.005h-2.588v8.88C20.328 22.098 24 17.477 24 12z" fill="#1A212F"/></symbol><symbol id="features_01"><rect width="60" height="60" rx="30" fill="#FAC663"/><path d="M39.68 20.201a.54.54 0 110 1.081h-4.832a.54.54 0 110-1.08h4.831zm-1.94 2.98a.54.54 0 00-.54-.541h-2.352a.54.54 0 100 1.08H37.2a.54.54 0 00.54-.54zm-3.433 2.438c0 .298.242.54.54.54h4.832a.54.54 0 100-1.08h-4.831a.54.54 0 00-.54.54zm3.433 2.44a.54.54 0 00-.54-.541h-2.352a.54.54 0 100 1.08H37.2a.54.54 0 00.54-.54zm-3.433 2.438c0 .298.242.54.54.54h4.832a.54.54 0 100-1.08h-4.831a.54.54 0 00-.54.54zm.922 9.81c0 4.315-3.465 7.825-7.724 7.825-4.26 0-7.725-3.51-7.725-7.824a7.806 7.806 0 013.815-6.742V15.828c0-2.183 1.754-3.96 3.91-3.96 2.155 0 3.91 1.777 3.91 3.96v17.738c2.364 1.404 3.814 3.945 3.814 6.742zm-1.072 0c0-2.371-1.301-4.98-3.397-6.059l-.417-.214V15.829c0-1.332-1.524-2.88-2.838-2.88-1.315 0-2.839 1.548-2.839 2.88v18.205l-.417.214c-2.096 1.08-3.397 3.688-3.397 6.06 0 3.462 3.235 6.743 6.653 6.743 3.417 0 6.652-3.281 6.652-6.743zm-1.725 0c0 2.753-2.21 4.991-4.927 4.991-2.717 0-4.927-2.238-4.927-4.99 0-2.256 1.958-4.236 4.113-4.817l.283-.076v-9a.531.531 0 111.062 0v9l.283.076c2.155.58 4.113 2.562 4.113 4.817zm-4.249-3.333c-.117-.529-.622-.404-1.157-.28-1.868.428-3.172 2.082-3.172 4.023 0 .55 0 1.139.695 1.139.37 0 .455-.613.455-1.163 0-.987.603-2.46 2.022-2.79.528-.122 1.276-.395 1.157-.93z" fill="#FFFDFB"/></symbol><symbol id="features_02"><rect width="60" height="60" rx="30" fill="#FAC663"/><path d="M48.131 27.445c-.012-.268-.17-.765-1.088-1.082l-24.471-8.422c-1.255-.433-2.647.182-3.103 1.37l-.663 1.722-1.49 3.876c-.457 1.188.192 2.506 1.447 2.938l7.132 2.454c-.136.78.09 1.552.583 2.141l-1.52 3.952a.49.49 0 01-.459.304h-4.45v-1.376c0-.758-.652-1.375-1.453-1.375h-.969a.472.472 0 00-.484.459v7.333c0 .254.217.459.484.459h.969c.8 0 1.452-.617 1.452-1.375v-1.375H24.5c1.422 0 2.704-.85 3.19-2.114l1.487-3.868a2.895 2.895 0 002.084-1.319l8.334 2.869c.273.093.551.138.826.138.832 0 1.623-.41 2.066-1.093l.956.33a1.018 1.018 0 00.74-.031.931.931 0 00.5-.517l1.326-3.447a.894.894 0 00-.414-1.1l1.553-.684c.885-.391.996-.9.984-1.167zM19.08 40.823a.472.472 0 01-.484.458h-.485v-6.417h.485c.267 0 .484.206.484.459v5.5zm7.698-3.803c-.347.904-1.263 1.511-2.279 1.511h-4.45v-.917h4.45c.61 0 1.16-.364 1.37-.907l1.39-3.615a3.034 3.034 0 00.9.337l-1.38 3.591zm2.053-4.447l-.034.001a2.052 2.052 0 01-.696-.112 1.965 1.965 0 01-.754-.47 1.764 1.764 0 01-.518-1.37l3.496 1.204c-.353.46-.907.73-1.494.748zm16.267-2.49l-1.325 3.446-.91-.314 1.256-3.267.257-.114.722.248zm1.64-2.302l-2.589 1.142-.62.274h-.001l-.727.321c-.853.377-2.32.437-3.205.133L21.04 23.266c-.252-.087.38.35.289.587-.091.238-.872.188-.62.274l18.556 6.385c.487.168 1.088.25 1.7.25.671 0 1.355-.098 1.922-.289l-1.1 2.86c-.274.712-1.109 1.08-1.862.821l-20.831-7.169c-.753-.259-1.142-1.05-.868-1.762l.828-2.155a2.39 2.39 0 001.2.902l.454.157a.492.492 0 00.621-.274.452.452 0 00-.29-.587l-.455-.157c-.752-.26-1.142-1.05-.868-1.762l.166-.431.497-1.292c.274-.713 1.109-1.082 1.862-.822l24.47 8.423c.312.107.427.219.45.26-.02.043-.124.163-.423.296z" fill="#FFFDFB"/><path d="M44.15 28.923l2.588-1.142c.3-.133.404-.253.423-.296-.023-.041-.138-.153-.45-.26l-24.47-8.423c-.753-.26-1.588.11-1.862.822l-.497 1.292-.166.43c-.274.713.116 1.504.868 1.763l.456.157 18.556 6.385c.884.304 2.352.244 3.205-.133l.727-.32.62-.274h.001z" fill="#FFFDFB"/></symbol><symbol id="features_03"><rect width="60" height="60" rx="30" fill="#FAC663"/><path d="M46.703 31.354c-.147-.148-2.937-3.635-9.032-3.747-.588-1.038-2.828-4.414-6.462-4.414h-.11l-1.616-3.116a.572.572 0 00-.477-.297h-2.497c-.22 0-.404.111-.477.297l-1.47 3.079h-.477c-.146 0-3.598-.26-7.196 4.414H14.1c-.257 0-.478.186-.551.445-.037.223-1.138 5.565.697 7.865.588.704 1.359 1.075 2.314 1.075h.77a3.778 3.778 0 003.746 3.265c1.909 0 3.488-1.41 3.745-3.265H35.54a3.778 3.778 0 003.745 3.265c1.91 0 3.488-1.41 3.745-3.265h3.231c.294 0 .551-.26.551-.556v-4.711c0-.111-.037-.26-.11-.334zm-15.494-7.085c2.57 0 4.332 2.151 5.14 3.338H28.38V24.27h2.828zm-4.333-3.376h1.8l1.174 2.3h-4.075l1.101-2.3zm-2.827 3.376h3.268v3.338H18.32c2.974-3.45 5.654-3.338 5.728-3.338zm-2.974 14.875c-1.469 0-2.68-1.224-2.68-2.708 0-1.484 1.211-2.708 2.68-2.708 1.468 0 2.68 1.224 2.68 2.708.037 1.484-1.175 2.708-2.68 2.708zm18.211 0c-1.468 0-2.68-1.224-2.68-2.708 0-1.484 1.212-2.708 2.68-2.708 1.469 0 2.68 1.224 2.68 2.708 0 1.484-1.174 2.708-2.68 2.708zm6.426-3.264h-2.68a3.778 3.778 0 00-3.746-3.265 3.778 3.778 0 00-3.745 3.265H24.82a3.778 3.778 0 00-3.745-3.265 3.778 3.778 0 00-3.745 3.265h-.771c-.625 0-1.102-.223-1.47-.668-1.137-1.447-.844-4.823-.55-6.492H37.34c5.104 0 7.784 2.56 8.372 3.19v3.97z" fill="#FFFDFB"/><path d="M26.876 20.893h1.8l1.174 2.3h-4.075l1.101-2.3zM21.075 39.144c-1.469 0-2.68-1.224-2.68-2.708 0-1.484 1.211-2.708 2.68-2.708 1.468 0 2.68 1.224 2.68 2.708.037 1.484-1.175 2.708-2.68 2.708zM39.286 39.144c-1.468 0-2.68-1.224-2.68-2.708 0-1.484 1.212-2.708 2.68-2.708 1.469 0 2.68 1.224 2.68 2.708 0 1.484-1.174 2.708-2.68 2.708z" fill="#FFFDFB"/></symbol><symbol id="features_04"><rect width="60" height="60" rx="30" fill="#FAC663"/><path d="M31.094 30.736c2.16 0 3.926 2.27 3.926 2.838 0 .567-1.767 2.459-3.926 2.459-2.16 0-3.73-2.46-3.73-2.46s1.57-2.837 3.73-2.837z" fill="#FFFDFB"/><path d="M25.008 31.304l2.356 2.27m0 0l-2.356 2.27m2.356-2.27s1.57 2.459 3.73 2.459 3.926-1.892 3.926-2.46c0-.567-1.767-2.837-3.926-2.837-2.16 0-3.73 2.838-3.73 2.838z" stroke="#FFFDFB" stroke-width="2" stroke-linecap="round" stroke-linejoin="round"/><path d="M18.866 25.13h.191l.313-.575c.226-.414.631-.863.982-1.197a6.21 6.21 0 01.51-.44c.076-.058.152-.111.224-.154a.81.81 0 01.311-.116h0a.513.513 0 00.444-.36c.163-.588.718-.99 1.205-1.219.503-.236 1.122-.375 1.616-.295h0a.539.539 0 00.543-.234h0c.279-.443.76-.733 1.238-.869.48-.136 1.043-.143 1.521.083h0c.2.094.44.059.598-.081h0c.394-.347.938-.493 1.437-.494.5 0 1.043.146 1.439.494h0c.159.14.397.175.598.08l-13.17 5.377zm0 0l.052-.223c.405-1.753 2.011-2.286 2.204-2.348l.196-.062.095-.184c.869-1.677 2.67-1.765 2.875-1.772l.203-.007.14-.146c1.064-1.104 2.509-1.118 3.286-.926l.195.048.174-.1c1.348-.773 2.74-.393 3.428 0l.174.1.195-.048c.777-.192 2.222-.178 3.285.926l.14.146.203.007c.156.005 1.207.056 2.09.79M18.866 25.13l18.935-3.8m0 0a3.166 3.166 0 00-.446-.256c-.502-.238-1.122-.382-1.624-.3a.54.54 0 01-.544-.234h0c-.16-.254-.402-.442-.648-.577a3.155 3.155 0 00-.819-.3c-.544-.123-1.203-.136-1.684.09l5.765 1.578zm-14.997 1.225h0a1.51 1.51 0 01-1.22 1.077 1.636 1.636 0 00-.117.082 5.198 5.198 0 00-.425.368c-.072.069-.144.14-.214.212h18.448a9.475 9.475 0 00-.221-.294 5.818 5.818 0 00-.327-.384 1.507 1.507 0 01-1.14-1.06c-.041-.15-.252-.384-.662-.579-.393-.186-.801-.254-1.034-.216h0a1.539 1.539 0 01-1.552-.689.768.768 0 00-.282-.232 2.162 2.162 0 00-.557-.202c-.444-.1-.845-.071-1.039.02h0a1.555 1.555 0 01-1.685-.235c-.164-.144-.449-.244-.777-.244-.33 0-.613.1-.777.244a1.555 1.555 0 01-1.685.235l-4.733 1.897zm0 0c.044-.155.257-.388.667-.58m-.666.58l.666-.58m0 0c.394-.185.802-.251 1.03-.214m-1.03.214l1.03-.214m0 0a1.539 1.539 0 001.551-.689m-1.551.69l.08-.494 1.471-.196m0 0c.112-.178.35-.35.665-.44m-.665.44l.665-.44m0 0c.312-.088.615-.07.82.026l-.82-.025zm18.057 5.081h0l2.194 14.774a.452.452 0 01-.018.205l-.01-.064-2.293-15.074-.017-.114c.077.075.129.17.144.273zM13.06 40.628l-.01.064a.45.45 0 01-.017-.204h0l2.194-14.774h0a.477.477 0 01.144-.274l-.017.114-2.294 15.074zM41.133 25.13h-.19l-.314-.575a8.973 8.973 0 00-1.145-1.595 2.153 2.153 0 00-.15-.148.887.887 0 00-.093-.071l-.002-.002a.56.56 0 00-.243-.09h0a.513.513 0 01-.444-.361h0a1.343 1.343 0 00-.03-.092c.022.038.044.077.064.117l.095.183.197.063c.19.06 1.797.591 2.204 2.348l.051.223zm-19.516-1.517l-.01.004a.05.05 0 01.01-.004z" fill="#FFFDFB" stroke="#FFFDFB"/></symbol><symbol id="features_05"><rect width="60" height="60" rx="30" fill="#FAC663"/><path d="M45.216 20.303a.88.88 0 00-.8-.134c-1.02.308-1.789.92-2.158 1.26a3.859 3.859 0 00-2.102 0c-.374-.344-1.156-.967-2.196-1.27a.838.838 0 00-.857.234.717.717 0 00-.137.721c.259.736.679 1.896.826 2.301a2.574 2.574 0 00-.119.633c-.013.21-.009.41.01.602l-.29.571c-.19.374-.571.634-1.013.69-1.606.206-4.733.62-7.627 1.091-3.746.609-5.23 1.01-5.866 1.256a5.318 5.318 0 00-2.217-1.779c-1.367-.593-3.654-1.883-3.612-3.858.038-1.787.766-2.843 1.371-3.414.258-.244.394-.58.372-.92a1.19 1.19 0 00-.49-.875 1.37 1.37 0 00-1.815.164c-1.53 1.684-1.897 4.018-1.98 5.258-.083 1.251.313 2.408 1.178 3.44.62.74 1.465 1.399 2.514 1.96 1.016.543 1.751 1.41 2.069 2.441.028.09.04.185.039.279l-.01.477a5.424 5.424 0 01-.06.696l-.348 2.307c-.137.905-.763 1.666-1.64 2.084-.608.29-.956.908-.865 1.538l.637 4.403a.484.484 0 00.49.398h2.62a.542.542 0 00.297-.083.443.443 0 00.193-.499l-.029-.094c-.205-.687-.768-1.213-1.484-1.415l-.123-.942a.582.582 0 01.393-.615l2.503-.924a1.138 1.138 0 01-.004.082c-.025.435-.043.827-.055 1.165-.017.464.175.914.529 1.242l2.1 1.948a.514.514 0 00.35.135h3.037c.26 0 .481-.198.495-.44.05-.842-.59-1.57-1.49-1.697l-.868-.122-.358-.523a.714.714 0 01.014-.837l2.369-3.217c.72-.207 3.755-1.02 5.535-.635.024.217.088.43.193.629l3.453 6.584a.5.5 0 00.445.258h2.348a.544.544 0 00.294-.08.444.444 0 00.2-.49l-.16-.592c-.153-.571-.613-1.009-1.192-1.18l.575-4.64c.024-.194.086-.382.183-.555a50.946 50.946 0 011.742-2.88c.536-.81.881-1.739.997-2.689.177-1.446.524-3.292.61-3.741.382-.506.557-1.176.509-1.962a2.573 2.573 0 00-.119-.633c.148-.409.574-1.584.833-2.32a.705.705 0 00-.24-.792zM20.02 38.355c-.683.252-1.099.902-1.01 1.579l.165 1.267c.028.21.207.376.434.4.288.032.545.154.737.338h-1.394l-.579-4.005a.578.578 0 01.337-.6c1.1-.524 1.881-1.484 2.131-2.598.89.974 1.526 1.895 1.835 2.64l-2.656.98zm21.761-6.397a51.781 51.781 0 00-1.775 2.935c-.155.274-.252.57-.29.876l-.272 2.19-.598-2.745a.892.892 0 01.178-.746l1.364-1.72a4.482 4.482 0 00.965-3.296c-.028-.252-.271-.435-.543-.41-.272.027-.47.253-.441.505.105.947-.171 1.89-.779 2.657l-1.364 1.72a1.76 1.76 0 00-.35 1.472l1.217 5.59c.047.214.25.369.486.369.368 0 .688.231.778.563l.005.02h-1.419l-3.317-6.325a.883.883 0 01-.096-.518l.49-4.041c.031-.252-.164-.48-.436-.508-.272-.028-.516.153-.547.405l-.427 3.512c-1.615-.284-3.836.155-5.097.467a2.197 2.197 0 00-.497-1.777l-.723-.866a.521.521 0 00-.695-.082.437.437 0 00-.088.644l.723.866c.405.485.426 1.15.054 1.657l-2.465 3.348a1.577 1.577 0 00-.033 1.848l.48.699a.5.5 0 00.343.207l1.091.154a.77.77 0 01.526.31h-2.215l-1.955-1.813a.736.736 0 01-.24-.563c.012-.33.03-.715.054-1.143.11-1.47-1.439-3.375-2.372-4.38a.904.904 0 01-.248-.636l.056-2.642a3.425 3.425 0 00-.081-.338c-.39-1.262-1.286-2.322-2.527-2.985-2.793-1.493-3.28-3.297-3.198-4.547.175-2.627 1.17-4.087 1.75-4.723a.332.332 0 01.44-.04.285.285 0 01.118.213.277.277 0 01-.09.223c-.73.69-1.61 1.95-1.654 4.04-.053 2.494 2.598 4.02 4.183 4.707a4.287 4.287 0 012.03 1.798.498.498 0 00.333.215.525.525 0 00.4-.092c.516-.382 4.36-1.242 13.501-2.411a2.327 2.327 0 001.592-.916c.092.137.196.264.316.378.501.481 1.22.734 2.082.734l1.298-.001h.009a3.6 3.6 0 001.265-.184 56.188 56.188 0 00-.438 2.815 5.39 5.39 0 01-.857 2.311zm1.853-8.702a.428.428 0 00.001.319c.066.163.105.34.116.525.042.674-.122 1.208-.473 1.545-.323.31-.824.466-1.448.453h-.014c-.005 0-1.226-.002-1.25 0-.617.01-1.112-.146-1.433-.453-.35-.337-.514-.87-.473-1.545.012-.185.051-.362.117-.525a.428.428 0 00.001-.316v-.003c-.048-.13-.454-1.248-.755-2.096a4.92 4.92 0 011.614 1.097.52.52 0 00.572.13 2.773 2.773 0 011.994 0c.2.077.432.025.571-.13.007-.007.648-.705 1.615-1.097-.302.849-.708 1.968-.755 2.096z" fill="#FFFDFB"/><path d="M38.778 23.256l.001.003c.291-.759.291-.759.859-1.002a4.92 4.92 0 00-1.614-1.097c.301.848.707 1.966.754 2.096zM44.39 21.16c-.967.392-1.608 1.09-1.615 1.098.82.24.83.416.86.978v.02c.047-.128.453-1.247.755-2.096zM17.253 18.168c-.578.636-1.574 2.096-1.749 4.723l.564-.288c.044-2.089.924-3.35 1.655-4.04a.277.277 0 00.09-.222.285.285 0 00-.12-.212.332.332 0 00-.44.039z" fill="#FFFDFB"/></symbol><symbol id="features_06"><rect width="60" height="60" rx="30" fill="#FAC663"/><path d="M26.423 24.907a3.088 3.088 0 00-.247 1.228c.005.852.36 1.66 1.002 2.276a3.611 3.611 0 002.407.994 3.715 3.715 0 002.006-.518 3.707 3.707 0 002.007.519 3.617 3.617 0 002.39-.978c.64-.605 1.001-1.403 1.018-2.247a3.082 3.082 0 00-.354-1.504c-.225-.43-2.044-2.296-2.687-2.98-.162-.171.271.428.088.578-.183.15-.78-.088-.618.083.582.62 2.236 2.323 2.423 2.682.184.352.273.73.265 1.126-.027 1.314-1.148 2.374-2.552 2.414a2.76 2.76 0 01-1.707-.524.466.466 0 00-.545 0 2.762 2.762 0 01-1.707.524c-1.4-.04-2.545-1.138-2.552-2.45-.002-.317.06-.627.184-.919.287-.676.906-1.44 2.072-2.555 1.095-1.048 2.866-1.176 4.119-.298.195.137.472.1.618-.083a.396.396 0 00-.088-.578c-1.607-1.126-3.877-.962-5.28.381-1.27 1.214-1.925 2.034-2.262 2.829zM29.26 20.753c1.135 0 2.059-1.105 2.059-2.464 0-1.36-.924-2.465-2.06-2.465-1.135 0-2.058 1.106-2.058 2.465 0 1.359.923 2.464 2.059 2.464zm0-4.103c.637 0 1.175.75 1.175 1.639 0 .888-.538 1.638-1.175 1.638s-1.176-.75-1.176-1.638c0-.888.539-1.639 1.176-1.639z" fill="#FFFDFB"/><path d="M29.26 16.65c.637 0 1.175.75 1.175 1.639 0 .888-.538 1.638-1.175 1.638s-1.176-.75-1.176-1.638c0-.888.539-1.639 1.176-1.639zM25.04 23.707c.917 0 1.635-.846 1.635-1.926s-.718-1.925-1.634-1.925c-.916 0-1.634.846-1.634 1.925 0 1.08.718 1.926 1.634 1.926zm0-3.025c.408 0 .751.504.751 1.1 0 .595-.343 1.099-.75 1.099s-.75-.504-.75-1.1c0-.595.343-1.099.75-1.099z" fill="#FFFDFB"/><path d="M25.04 20.682c.408 0 .751.504.751 1.1 0 .595-.343 1.099-.75 1.099s-.75-.504-.75-1.1c0-.595.343-1.099.75-1.099zM37.974 23.707c.916 0 1.634-.846 1.634-1.926s-.718-1.925-1.634-1.925c-.916 0-1.634.846-1.634 1.925 0 1.08.718 1.926 1.634 1.926zm0-3.025c.407 0 .75.504.75 1.1 0 .595-.343 1.099-.75 1.099s-.75-.504-.75-1.1c0-.595.343-1.099.75-1.099z" fill="#FFFDFB"/><path d="M37.974 20.682c.407 0 .75.504.75 1.1 0 .595-.343 1.099-.75 1.099s-.75-.504-.75-1.1c0-.595.343-1.099.75-1.099zM34.43 20.753c1.135 0 2.06-1.105 2.06-2.464 0-1.36-.925-2.465-2.06-2.465s-2.06 1.106-2.06 2.465c0 1.359.925 2.464 2.06 2.464zm0-4.103c.637 0 1.176.75 1.176 1.639 0 .888-.539 1.638-1.176 1.638-.637 0-1.175-.75-1.175-1.638 0-.888.538-1.639 1.175-1.639z" fill="#FFFDFB"/><path d="M34.43 16.65c.637 0 1.176.75 1.176 1.639 0 .888-.539 1.638-1.176 1.638-.637 0-1.175-.75-1.175-1.638 0-.888.538-1.639 1.175-1.639zM42.823 28.97a2.441 2.441 0 00-1.677-.649c-.633 0-1.229.23-1.677.65l-2.6 2.43a2.442 2.442 0 00-1.755-.728h-3.725c-.244 0 .467.185.467.413 0 .229-.71.414-.467.414h3.725c.82 0 1.488.623 1.488 1.39 0 .768-.668 1.392-1.488 1.392h-3.725c-.244 0-.441.185-.441.413 0 .228.197.413.441.413h3.725c1.307 0 2.371-.995 2.371-2.217a2.08 2.08 0 00-.144-.763l.015-.013 2.738-2.56a1.564 1.564 0 012.104 0 1.33 1.33 0 010 1.967l-5.49 5.133h-5.063c-.244 0 .21.185.21.413 0 .228-.243.413 0 .413h5.036c.117 0 .23-.043.313-.12l5.619-5.255a2.119 2.119 0 000-3.136z" fill="#FFFDFB"/><path d="M31.969 36.655h-2.012a.458.458 0 00-.31.12l-1.39 1.282-3.394-3.174a2.521 2.521 0 01-.098-.697c0-1.477 1.286-2.68 2.867-2.68a.47.47 0 00.077-.006h3.883c.244 0 .442-.185.442-.413 0-.229-.198-.413-.442-.413h-4.31a.464.464 0 00-.198.044c-1.771.244-3.142 1.649-3.2 3.358l-.356-.334a.464.464 0 00-.625 0l-2.34 2.189a.424.424 0 00-.041.044l-3.92 4.1a.398.398 0 00-.112.274l-.006 3.394c-.001.228.196.413.44.414l7.28.019h.002c.117 0 .23-.044.312-.121l4.707-4.401a.4.4 0 00.13-.292.4.4 0 00-.13-.293l-.4-.374 1.314-1.214h1.83c.244 0 .442-.185.442-.413 0-.228-.198-.413-.442-.413zm-7.946 6.694l-6.655-.017.006-2.824 3.52-3.683 5.053 4.725-1.924 1.8zm2.576-2.408l-5.073-4.743 1.69-1.58 5.072 4.743-1.689 1.58z" fill="#FFFDFB"/></symbol><symbol id="instagram"><circle cx="12" cy="12" r="12" fill="#FFFDFB"/><path d="M14.297 12a2.297 2.297 0 11-4.594 0 2.297 2.297 0 014.594 0z" fill="#1A212F"/><path d="M17.372 7.936c-.11-.299-.287-.57-.516-.792a2.133 2.133 0 00-.792-.516c-.243-.094-.608-.206-1.28-.237-.726-.033-.944-.04-2.784-.04-1.84 0-2.058.007-2.784.04-.672.03-1.037.143-1.28.237-.3.11-.57.287-.792.516a2.136 2.136 0 00-.516.792c-.094.243-.206.608-.237 1.28-.033.726-.04.944-.04 2.784 0 1.84.007 2.058.04 2.785.03.671.143 1.036.237 1.28.11.298.287.57.516.791.222.23.493.405.792.516.243.094.608.207 1.28.237.726.033.944.04 2.784.04 1.84 0 2.058-.007 2.784-.04.672-.03 1.037-.143 1.28-.237a2.282 2.282 0 001.308-1.308c.094-.243.206-.607.237-1.28.033-.726.04-.944.04-2.784 0-1.84-.007-2.058-.04-2.784-.03-.672-.143-1.037-.237-1.28zM12 15.538a3.538 3.538 0 110-7.076 3.538 3.538 0 010 7.076zm3.678-6.39a.827.827 0 110-1.653.827.827 0 010 1.654z" fill="#1A212F"/><path d="M12 0C5.374 0 0 5.374 0 12s5.374 12 12 12 12-5.374 12-12S18.626 0 12 0zm6.85 14.84c-.034.734-.15 1.235-.321 1.674a3.524 3.524 0 01-2.015 2.015c-.439.17-.94.287-1.673.32-.735.034-.97.042-2.84.042-1.872 0-2.107-.008-2.842-.042-.733-.033-1.234-.15-1.672-.32a3.375 3.375 0 01-1.221-.795 3.377 3.377 0 01-.795-1.22c-.17-.439-.287-.94-.32-1.673-.034-.735-.042-.97-.042-2.841 0-1.871.008-2.106.042-2.84.033-.734.15-1.235.32-1.674.173-.46.444-.876.795-1.22.344-.35.76-.622 1.22-.795.439-.17.94-.287 1.673-.32.735-.034.97-.042 2.841-.042 1.871 0 2.106.008 2.84.042.734.033 1.235.15 1.674.32.46.173.876.444 1.22.795.35.344.622.76.795 1.22.17.439.287.94.32 1.673.034.735.042.97.042 2.841 0 1.871-.008 2.106-.042 2.84z" fill="#1A212F"/></symbol><symbol id="logo-tablet"><path d="M7.9 48.483c-.081-.973-.662-1.928-2.258-2.01.984-.13 2.338-2.397 1.758-4.082-.484-1.361-1.935-.827-2.79-.567-.16 1.296.21 3.677-1.225 3.985-.064-.68.065-1.814-.112-2.997-.339-1.96-2.725-1.053-3.273-.81.21 2.17.177 2.754.177 5.363.016.89-.08 2.3 0 3.062.226 2.025 2.628 1.49 3.29.794 0-.86-.017-2.609-.065-3.581 1.064-.081 1.257.227 1.29 2.495.015 2.268 2.692 1.847 3.481 1.07-.274-.843-.193-1.913-.274-2.722zM9.298 46.814c0 4.698 2.418 5.087 4.111 5.038 1.564 0 4.127-.437 4.143-5.038-.016-3.937-1.757-5.33-4.095-5.33-2.466 0-4.159 1.522-4.159 5.33zm4.16-2.69c.177 0 .854-.259.854 2.576 0 1.847-.29 2.9-.87 2.9-.484 0-.871-.437-.823-2.9 0-2.236.564-2.576.838-2.576zM20.87 44.465c0 .923-.017 1.944.031 5.087.017 1.264.065 2.3 1.516 2.268 1.29 0 1.612-.518 1.757-.68.048-1.41-.048-4.488-.08-6.627.354 0 .693 0 .999-.016 1.032-.032 1.386-.648 1.37-1.507-.016-.972-.806-1.49-1.902-1.49h-3.063c-2.434.016-2.596.016-2.79 0-.45 1.911-.176 2.932 1.678 2.965h.483zM33.104 41.564c-1.129-.113-3.853-.064-5.74.017.21 2.154.226 4.925.194 6.885.032 1.88-.129 3.192 1.838 3.322 1.29.097 2.015.097 3.176 0 1.58-.13 2.224-.989 1.467-2.868-1.306.194-2.515.243-3.273.097 0-.227-.032-.94 0-1.118.726 0 1.516-.032 2.209-.032 1.434 0 1.29-2.317-.016-2.317-.935-.049-1.355.049-2.225-.032v-1.28c.983-.081 1.419-.033 2.24 0 1.548.048 1.548-2.35.13-2.674zM38.14 38.032c-1.064.697-1 1.75-.242 2.382.854.616 2.53.421 3.66-.081 1.031-.47 1.434-1.54.338-2.333-1.628.859-2.709.421-3.756.032zm5.739 4.91c0-.973-.613-1.442-1.58-1.442-1.129 0-1.709.291-2.048 1.328-.403 1.264-1 3.208-1.338 4.553 0-.584.097-4.018.097-4.44 0-1.069-.564-1.441-1.515-1.441-.661 0-1.838.42-1.838.42.097.73.177 1.151.193 2.107.033 1.005 0 2.608.097 5.784.048 1.555.548 2.074 1.806 2.025 2.257-.08 2.402-4.26 3.014-5.784 0 .697-.032 3.11-.032 3.921 0 1.102.097 1.863 1.37 1.863 1.097 0 1.725-.372 1.919-.713-.13-.486-.178-3.434-.178-5.751 0-1.021.017-1.912.033-2.43zM53.218 48.483c-.08-.973-.66-1.928-2.257-2.01.984-.13 2.338-2.397 1.758-4.082-.484-1.361-1.935-.827-2.79-.567-.16 1.296.21 3.677-1.225 3.985-.064-.68.065-1.814-.112-2.997-.339-1.96-2.725-1.053-3.273-.81.21 2.17.177 2.754.177 5.363.016.89-.08 2.3 0 3.062.226 2.025 2.628 1.49 3.289.794 0-.86-.016-2.609-.064-3.581 1.064-.081 1.257.227 1.29 2.495.015 2.268 2.691 1.847 3.481 1.07-.274-.843-.193-1.913-.274-2.722zM63 51.14c-.226-.632-.21-.94-.258-1.848-.129-2.365-.161-4.65-.935-6.22-1.306-2.318-4.675-1.686-6.303-.52-.145 2.803-.63 3.954-.935 7.08-.226 2.285 1.676 2.917 3.45 1.8 0-.276 0-1.232.08-1.459.21 0 1 .016 1.306.016 0 0-.08.94.37 1.442.807.924 2.66.648 3.225-.291zm-4.788-3.192c.113-.875.113-2.69.161-3.078.08-.065.629-.033.693.048.194.762.194 2.155.242 3.03h-1.096z" fill="#1A212F"/><path d="M39 6.995L45.576.42C46.47-.476 48 .158 48 1.423v17.573c0-5.7-4.513-9.166-9-12z" fill="#FF7236"/><path d="M48 18.997c0 8.837-7.164 16.001-16 16.001s-16-7.164-16-16.001c0-8.838 7.163-15.002 16-15.002s16 6.164 16 15.002z" fill="#FFAA50"/><path d="M25 18.996c0-7.701 4.422-13.37 10.31-14.7A18.328 18.328 0 0032 3.995c-2.944 0-5.694.697-8.064 1.937L18.424.419C17.529-.476 16 .158 16 1.423v17.573c0-.36 0-.358 0 0 0 8.838 7.163 16.002 16 16.002 1.135 0 2.242-.122 3.31-.347C29.422 33.125 25 26.698 25 18.996z" fill="#FF7236"/><path d="M28.5 28.997c1.933 0 3.5-1.343 3.5-3s-1.567-3-3.5-3-3.5 1.343-3.5 3 1.567 3 3.5 3zM35.5 28.997c1.933 0 3.5-1.343 3.5-3s-1.567-3-3.5-3-3.5 1.343-3.5 3 1.567 3 3.5 3z" fill="#FFFDFB"/><path d="M32 25.998a2 2 0 100-4 2 2 0 000 4z" fill="#FF913C"/><path d="M26 19.997a1 1 0 01-1-1v-1a1 1 0 112 0v1a1 1 0 01-1 1zM38 19.997a1 1 0 01-1-1v-1a1 1 0 112 0v1a1 1 0 01-1 1z" fill="#1A212F"/></symbol><symbol id="logo"><path d="M5.768 35.43c-.059-.71-.483-1.41-1.648-1.469.718-.094 1.707-1.752 1.283-2.983-.353-.995-1.413-.604-2.036-.415-.118.948.153 2.688-.895 2.913-.047-.497.047-1.326-.082-2.19-.248-1.433-1.99-.77-2.39-.592.153 1.586.13 2.012.13 3.919.011.65-.06 1.68 0 2.237.164 1.48 1.918 1.09 2.4.58 0-.627-.011-1.906-.046-2.616.777-.06.918.166.941 1.823.012 1.658 1.966 1.35 2.543.782-.2-.616-.141-1.397-.2-1.99zM6.789 34.21c0 3.434 1.766 3.718 3.002 3.682 1.141 0 3.013-.32 3.025-3.682-.012-2.877-1.283-3.895-2.99-3.895-1.801 0-3.037 1.113-3.037 3.895zm3.037-1.965c.13 0 .624-.19.624 1.882 0 1.35-.212 2.12-.636 2.12-.353 0-.635-.32-.6-2.12 0-1.634.412-1.882.612-1.882zM15.238 32.493c0 .675-.012 1.421.023 3.718.012.923.047 1.681 1.107 1.657.942 0 1.177-.378 1.283-.497.035-1.03-.035-3.28-.059-4.842.259 0 .506 0 .73-.012.753-.024 1.012-.474 1-1.101-.011-.71-.588-1.09-1.389-1.09h-2.236c-1.777.012-1.895.012-2.036 0-.33 1.398-.13 2.144 1.224 2.167h.353zM24.17 30.374c-.823-.083-2.812-.047-4.19.012.154 1.575.165 3.6.142 5.032.023 1.373-.095 2.332 1.342 2.427.941.07 1.471.07 2.319 0 1.153-.095 1.624-.722 1.07-2.096-.953.142-1.836.178-2.389.071 0-.166-.023-.687 0-.817.53 0 1.107-.023 1.613-.023 1.047 0 .941-1.694-.012-1.694-.683-.035-.989.036-1.624-.023v-.935c.718-.06 1.035-.024 1.636 0 1.13.035 1.13-1.717.094-1.954zM27.848 27.793c-.777.509-.73 1.279-.177 1.74.624.45 1.848.308 2.672-.059.754-.343 1.048-1.125.248-1.705-1.19.628-1.978.308-2.743.024zm4.19 3.587c0-.71-.447-1.053-1.153-1.053-.824 0-1.248.213-1.495.97-.294.924-.73 2.345-.977 3.327 0-.426.07-2.936.07-3.244 0-.781-.411-1.053-1.106-1.053-.482 0-1.342.307-1.342.307.07.533.13.841.141 1.54.024.734 0 1.906.071 4.226.035 1.137.4 1.516 1.318 1.48 1.648-.059 1.754-3.114 2.202-4.227 0 .51-.024 2.274-.024 2.866 0 .805.07 1.361 1 1.361.801 0 1.26-.272 1.401-.52-.094-.356-.13-2.51-.13-4.204 0-.746.013-1.397.024-1.776zM38.858 35.43c-.059-.71-.483-1.41-1.648-1.469.718-.094 1.707-1.752 1.283-2.983-.353-.995-1.413-.604-2.037-.415-.117.948.153 2.688-.894 2.913-.047-.497.047-1.326-.082-2.19-.248-1.433-1.99-.77-2.39-.592.153 1.586.13 2.012.13 3.919.011.65-.06 1.68 0 2.237.164 1.48 1.918 1.09 2.4.58 0-.627-.011-1.906-.046-2.616.777-.06.918.166.941 1.823.012 1.658 1.966 1.35 2.543.782-.2-.616-.141-1.397-.2-1.99zM46 37.371c-.165-.462-.153-.687-.188-1.35-.094-1.728-.118-3.398-.683-4.546-.953-1.693-3.414-1.231-4.602-.379-.107 2.048-.46 2.89-.683 5.174-.165 1.67 1.224 2.131 2.519 1.314 0-.201 0-.9.059-1.065.153 0 .73.012.953.012 0 0-.059.686.27 1.053.59.675 1.943.474 2.355-.213zm-3.496-2.332c.082-.64.082-1.966.118-2.25.059-.047.459-.023.506.036.141.556.141 1.574.176 2.214h-.8z" fill="#1A212F"/><path d="M28.476 5.112L33.278.306c.653-.654 1.77-.19 1.77.734v12.842c0-4.165-3.296-6.699-6.572-8.77z" fill="#FF7236"/><path d="M35.047 13.882c0 6.458-5.23 11.694-11.682 11.694S11.683 20.34 11.683 13.882c0-6.458 5.23-10.962 11.682-10.962s11.683 4.504 11.683 10.962z" fill="#FFAA50"/><path d="M18.254 13.882c0-5.628 3.229-9.77 7.528-10.742-.78-.144-1.588-.22-2.417-.22-2.15 0-4.157.509-5.887 1.415L13.451.306c-.653-.654-1.77-.19-1.77.734v12.842c0-.264 0-.262 0 0 0 6.458 5.23 11.693 11.683 11.693.829 0 1.637-.089 2.417-.253-4.3-1.115-7.528-5.812-7.528-11.44z" fill="#FF7236"/><path d="M20.81 21.19c1.41 0 2.555-.981 2.555-2.192 0-1.211-1.144-2.193-2.556-2.193-1.411 0-2.555.982-2.555 2.193 0 1.21 1.144 2.192 2.555 2.192zM25.92 21.19c1.412 0 2.556-.981 2.556-2.192 0-1.211-1.144-2.193-2.555-2.193-1.412 0-2.556.982-2.556 2.193 0 1.21 1.144 2.192 2.556 2.192z" fill="#FFFDFB"/><path d="M23.365 18.998a1.461 1.461 0 10-.001-2.922 1.461 1.461 0 00.001 2.922z" fill="#FF913C"/><path d="M18.984 14.613a.73.73 0 01-.73-.731v-.73a.73.73 0 111.46 0v.73a.73.73 0 01-.73.73zM27.746 14.613a.73.73 0 01-.73-.731v-.73a.73.73 0 111.46 0v.73a.73.73 0 01-.73.73z" fill="#1A212F"/></symbol><symbol id="menu-close"><path d="M1 1l14 14m0-14L1 15" stroke="#1A212F" stroke-width="2" stroke-linecap="round" stroke-linejoin="round"/></symbol><symbol id="menu-open"><path d="M1 1h22M1 8h22M1 15h22" stroke="#1A212F" stroke-width="2" stroke-linecap="round" stroke-linejoin="round"/></symbol><symbol id="paw-orange"><path d="M34 17c0 4.54-1.768 8.81-4.98 12.02A16.89 16.89 0 0117.003 34H17c-4.54 0-8.81-1.768-12.02-4.98A16.89 16.89 0 010 17c0-4.54 1.768-8.81 4.98-12.02C8.19 1.767 12.46 0 17 0h.002c4.54 0 8.809 1.77 12.019 4.98C32.23 8.19 34 12.46 34 17z" fill="#FFFEFD"/><path d="M23.425 14.662c-2.8 1.606-2.323 6.293.715 6.293 1.31 0 2.443-.985 2.947-2.244 1.166-2.907-1.258-5.428-3.662-4.049zM20.55 15.242c3.359 0 4.365-5.704 1.173-6.642-1.454-.427-3.107.598-3.638 2.472-.596 2.1.576 4.17 2.465 4.17z" fill="#FF7236"/><path d="M19.685 25.396c-.466-.129-1.294-.212-2.16-.224-.917-.013-1.876.053-2.497.224-1.676.467-3.956-.662-3.456-3.008.463-2.17 2.126-2.046 2.52-4.101.396-2.078 1.935-3.08 3.432-3.002 1.386.073 2.734 1.072 3.101 3.002.391 2.057 2.05 1.932 2.513 4.1.502 2.349-1.783 3.472-3.453 3.01zM14.637 15.243c.95 0 1.766-.552 2.22-1.397 1.348-2.511-.866-5.988-3.394-5.244-3.197.94-2.183 6.64 1.174 6.64z" fill="#FF7236"/><path d="M13.119 19.087c1.079-2.639-1.478-5.862-3.92-4.848-2.941 1.221-1.644 6.49 1.59 6.49 1.038 0 1.92-.639 2.33-1.642zM19.685 25.396c-.466-.129-1.294-.212-2.16-.224v-9.887c1.385.073 2.733 1.072 3.1 3.002.391 2.057 2.05 1.932 2.513 4.1.502 2.348-1.783 3.472-3.453 3.01z" fill="#FF7236"/></symbol><symbol id="paw-white"><path d="M36 18c0 4.808-1.872 9.328-5.272 12.728A17.884 17.884 0 0118.002 36H18a17.882 17.882 0 01-12.728-5.272C1.872 27.328 0 22.808 0 18S1.872 8.672 5.272 5.272C8.672 1.872 13.192 0 18 0h.002c4.807 0 9.327 1.873 12.726 5.272C34.128 8.672 36 13.192 36 18z" fill="#FF7236"/><path d="M24.803 15.525c-2.964 1.7-2.46 6.662.756 6.662 1.387 0 2.587-1.042 3.122-2.375 1.234-3.078-1.333-5.748-3.878-4.287zM21.759 16.14c3.556 0 4.621-6.04 1.242-7.034-1.54-.452-3.29.633-3.852 2.617-.631 2.223.61 4.416 2.61 4.416z" fill="#FFFEFD"/><path d="M20.844 26.89c-.494-.136-1.37-.224-2.289-.237-.97-.014-1.985.055-2.642.237-1.775.495-4.19-.701-3.66-3.186.49-2.296 2.251-2.165 2.668-4.341.42-2.2 2.05-3.261 3.634-3.179 1.467.077 2.895 1.135 3.284 3.179.414 2.178 2.171 2.046 2.66 4.341.532 2.487-1.888 3.676-3.655 3.186zM15.499 16.14c1.006 0 1.87-.585 2.35-1.48 1.427-2.659-.917-6.34-3.593-5.552-3.385.996-2.312 7.031 1.243 7.031z" fill="#FFFEFD"/><path d="M13.89 20.21c1.143-2.794-1.564-6.208-4.15-5.134C6.627 16.37 8 21.95 11.425 21.95c1.099 0 2.033-.677 2.467-1.74zM20.844 26.89c-.494-.136-1.371-.224-2.289-.237V16.184c1.467.077 2.895 1.135 3.284 3.179.414 2.178 2.171 2.046 2.66 4.341.532 2.486-1.888 3.676-3.655 3.186z" fill="#FFFEFD"/></symbol><symbol id="vk"><path d="M12 24c6.627 0 12-5.373 12-12S18.627 0 12 0 0 5.373 0 12s5.373 12 12 12z" fill="#1A212F"/><path fill-rule="evenodd" clip-rule="evenodd" d="M11.547 17.263h.942s.284-.031.43-.188c.133-.144.129-.413.129-.413s-.019-1.264.568-1.45c.578-.184 1.32 1.221 2.108 1.761.595.409 1.047.32 1.047.32l2.104-.03s1.101-.068.579-.933c-.043-.071-.304-.64-1.564-1.81-1.32-1.225-1.143-1.027.446-3.146.968-1.29 1.355-2.077 1.234-2.415-.115-.32-.827-.236-.827-.236l-2.37.015s-.175-.024-.305.054c-.128.076-.21.254-.21.254s-.374.998-.875 1.847c-1.055 1.792-1.476 1.886-1.649 1.775-.4-.26-.3-1.041-.3-1.597 0-1.736.263-2.46-.514-2.647-.257-.063-.447-.104-1.105-.11-.846-.01-1.561.002-1.966.2-.27.133-.478.427-.351.444.156.02.511.095.7.351.242.33.233 1.072.233 1.072s.14 2.044-.325 2.298c-.32.174-.758-.181-1.698-1.807a15.113 15.113 0 01-.846-1.752s-.07-.172-.195-.264c-.152-.112-.365-.147-.365-.147l-2.251.014s-.338.01-.462.157c-.11.13-.009.4-.009.4s1.763 4.125 3.759 6.203c1.83 1.905 3.908 1.78 3.908 1.78z" fill="#FFFDFB"/></symbol></svg>